<svg xmlns="http://www.w3.org/2000/svg" width="21" height="19" fill="none" viewBox="0 0 21 19"><path fill="#575E75" fill-opacity=".6" fill-rule="evenodd" d="M10.4923 14.0441C11.4621 14.0441 12.2482 14.7672 12.2482 15.659C12.2482 16.5509 11.4621 17.2739 10.4923 17.2739C9.52252 17.2739 8.73636 16.5509 8.73636 15.659C8.73636 14.7672 9.52252 14.0441 10.4923 14.0441ZM10.4923 7.58453C11.4621 7.58453 12.2482 8.30755 12.2482 9.19943C12.2482 10.0913 11.4621 10.8143 10.4923 10.8143C9.52252 10.8143 8.73636 10.0913 8.73636 9.19943C8.73636 8.30755 9.52252 7.58453 10.4923 7.58453ZM12.2482 2.73983C12.2482 1.84795 11.4621 1.12493 10.4923 1.12493C9.52252 1.12493 8.73636 1.84795 8.73636 2.73983C8.73636 3.63172 9.52252 4.35474 10.4923 4.35474C11.4621 4.35474 12.2482 3.63172 12.2482 2.73983Z" clip-rule="evenodd"/><mask id="mask0" width="5" height="17" x="8" y="1" mask-type="alpha" maskUnits="userSpaceOnUse"><path fill="#fff" fill-rule="evenodd" d="M10.4923 14.0441C11.4621 14.0441 12.2482 14.7672 12.2482 15.659C12.2482 16.5509 11.4621 17.2739 10.4923 17.2739C9.52252 17.2739 8.73636 16.5509 8.73636 15.659C8.73636 14.7672 9.52252 14.0441 10.4923 14.0441ZM10.4923 7.58453C11.4621 7.58453 12.2482 8.30755 12.2482 9.19943C12.2482 10.0913 11.4621 10.8143 10.4923 10.8143C9.52252 10.8143 8.73636 10.0913 8.73636 9.19943C8.73636 8.30755 9.52252 7.58453 10.4923 7.58453ZM12.2482 2.73983C12.2482 1.84795 11.4621 1.12493 10.4923 1.12493C9.52252 1.12493 8.73636 1.84795 8.73636 2.73983C8.73636 3.63172 9.52252 4.35474 10.4923 4.35474C11.4621 4.35474 12.2482 3.63172 12.2482 2.73983Z" clip-rule="evenodd"/></mask><g mask="url(#mask0)"><rect width="17.943" height="19.51" x=".932" y="18.171" fill="#575E75" fill-opacity=".6" transform="rotate(-90 0.93222 18.1711)"/></g></svg>