<svg xmlns="http://www.w3.org/2000/svg" xmlns:xlink="http://www.w3.org/1999/xlink" id="Layer_1" x="0" y="0" version="1.1" viewBox="0 0 20 20" xml:space="preserve" style="enable-background:new 0 0 20 20"><style type="text/css">.st0{fill-rule:evenodd;clip-rule:evenodd;fill:#ffab1a}.st1{filter:url(#Adobe_OpacityMaskFilter)}.st2{fill-rule:evenodd;clip-rule:evenodd;fill:#fff}.st3{mask:url(#mask-2_1_)}</style><desc>Created with Sketch.</desc><g id="Action-Menu_x2F_Actions_x2F_Surprise"><g id="surprise-icon"><path id="path-1_1_" d="M7,8.7C7.8,8.4,8.4,7.8,8.7,7l0.5-1.8c0.2-0.9,1.5-0.9,1.7,0L11.3,7c0.2,0.8,0.8,1.4,1.7,1.7 l1.8,0.5c0.9,0.2,0.9,1.5,0,1.7L13,11.3c-0.8,0.2-1.4,0.8-1.7,1.7l-0.5,1.8c-0.2,0.9-1.5,0.9-1.7,0L8.7,13 c-0.2-0.8-0.8-1.4-1.7-1.7l-1.8-0.5c-0.9-0.2-0.9-1.5,0-1.7L7,8.7z M3.9,14.5c0.3-0.1,0.5-0.3,0.6-0.6l0.2-0.7 c0.1-0.3,0.5-0.3,0.6,0l0.2,0.7c0.1,0.3,0.3,0.5,0.6,0.6l0.7,0.2c0.3,0.1,0.3,0.5,0,0.6l-0.7,0.2c-0.3,0.1-0.5,0.3-0.6,0.6 l-0.2,0.7c-0.1,0.3-0.5,0.3-0.6,0l-0.2-0.7c-0.1-0.3-0.3-0.5-0.6-0.6l-0.7-0.2c-0.3-0.1-0.3-0.5,0-0.6L3.9,14.5z M13.9,4.5 c0.3-0.1,0.5-0.3,0.6-0.6l0.2-0.7c0.1-0.3,0.5-0.3,0.6,0l0.2,0.7c0.1,0.3,0.3,0.5,0.6,0.6l0.7,0.2c0.3,0.1,0.3,0.5,0,0.6l-0.7,0.2 c-0.3,0.1-0.5,0.3-0.6,0.6l-0.2,0.7c-0.1,0.3-0.5,0.3-0.6,0l-0.2-0.7c-0.1-0.3-0.3-0.5-0.6-0.6l-0.7-0.2c-0.3-0.1-0.3-0.5,0-0.6 L13.9,4.5z M5.8,5.8c0,0.4-0.3,0.8-0.8,0.8S4.2,6.2,4.2,5.8S4.6,5,5,5S5.8,5.3,5.8,5.8z M16,14.2c0,0.7-0.6,1.2-1.2,1.2 c-0.7,0-1.2-0.6-1.2-1.2c0-0.7,0.6-1.2,1.2-1.2C15.4,13,16,13.6,16,14.2z" class="st0"/></g><defs><filter id="Adobe_OpacityMaskFilter" width="20" height="20" x="0" y="0" filterUnits="userSpaceOnUse"><feColorMatrix type="matrix" values="1 0 0 0 0 0 1 0 0 0 0 0 1 0 0 0 0 0 1 0"/></filter></defs><mask id="mask-2_1_" width="20" height="20" x="0" y="0" maskUnits="userSpaceOnUse"><g class="st1"><path id="path-1_2_" d="M7,8.7C7.8,8.4,8.4,7.8,8.7,7l0.5-1.8c0.2-0.9,1.5-0.9,1.7,0L11.3,7c0.2,0.8,0.8,1.4,1.7,1.7 l1.8,0.5c0.9,0.2,0.9,1.5,0,1.7L13,11.3c-0.8,0.2-1.4,0.8-1.7,1.7l-0.5,1.8c-0.2,0.9-1.5,0.9-1.7,0L8.7,13 c-0.2-0.8-0.8-1.4-1.7-1.7l-1.8-0.5c-0.9-0.2-0.9-1.5,0-1.7L7,8.7z M3.9,14.5c0.3-0.1,0.5-0.3,0.6-0.6l0.2-0.7 c0.1-0.3,0.5-0.3,0.6,0l0.2,0.7c0.1,0.3,0.3,0.5,0.6,0.6l0.7,0.2c0.3,0.1,0.3,0.5,0,0.6l-0.7,0.2c-0.3,0.1-0.5,0.3-0.6,0.6 l-0.2,0.7c-0.1,0.3-0.5,0.3-0.6,0l-0.2-0.7c-0.1-0.3-0.3-0.5-0.6-0.6l-0.7-0.2c-0.3-0.1-0.3-0.5,0-0.6L3.9,14.5z M13.9,4.5 c0.3-0.1,0.5-0.3,0.6-0.6l0.2-0.7c0.1-0.3,0.5-0.3,0.6,0l0.2,0.7c0.1,0.3,0.3,0.5,0.6,0.6l0.7,0.2c0.3,0.1,0.3,0.5,0,0.6 l-0.7,0.2c-0.3,0.1-0.5,0.3-0.6,0.6l-0.2,0.7c-0.1,0.3-0.5,0.3-0.6,0l-0.2-0.7c-0.1-0.3-0.3-0.5-0.6-0.6l-0.7-0.2 c-0.3-0.1-0.3-0.5,0-0.6L13.9,4.5z M5.8,5.8c0,0.4-0.3,0.8-0.8,0.8S4.2,6.2,4.2,5.8S4.6,5,5,5S5.8,5.3,5.8,5.8z M16,14.2 c0,0.7-0.6,1.2-1.2,1.2c-0.7,0-1.2-0.6-1.2-1.2c0-0.7,0.6-1.2,1.2-1.2C15.4,13,16,13.6,16,14.2z" class="st2"/></g></mask><g id="Color_x2F_White" class="st3"><g id="Color"><rect width="20" height="20" class="st0"/></g></g></g></svg>