<svg xmlns="http://www.w3.org/2000/svg" xmlns:xlink="http://www.w3.org/1999/xlink" x="0" y="0" version="1.1" viewBox="0 0 132 200" xml:space="preserve" style="enable-background:new 0 0 132 200"><style type="text/css">.st0{fill:#fff}.st8,.st9{fill-rule:evenodd;clip-rule:evenodd;fill:#ed5f87}.st9{opacity:.25;fill:#0eb989}.st32{opacity:.8;fill:#fff}.st33{fill:#dcddde}.st34{fill:none;stroke:#dcddde;stroke-width:2.0722;stroke-miterlimit:10}.st35{clip-path:url(#SVGID_2_)}</style><g id="Layer_1"><g><defs><rect id="SVGID_3_" width="132" height="200"/></defs><clipPath id="SVGID_2_"><use xlink:href="#SVGID_3_" style="overflow:visible"/></clipPath><g class="st35"><path d="M-0.3,191.7c-63-3.3-56-14.6-59.5-91.5c-2.9-64.7,28.6-96,90.2-96c76.8,0,98.5,30.4,96.3,95.3 C124.3,168.5,47.3,194.2-0.3,191.7z" class="st9"/><path d="M104,69.8c0.5,6.9-6.5,13.5-8.4,13.8c-2,0.3-10.5-3.9-12.2-10.6c-0.1-0.2-0.1-0.4-0.1-0.7 c-0.5-3.3,1.8-6.4,5.1-6.9c1.7-0.3,3.3,0.2,4.6,1.2c0.9-1.3,2.3-2.2,4-2.5c3.3-0.5,6.5,1.8,7,5.1C104,69.3,104,69.6,104,69.8z" class="st8"/><path d="M14.7,35.6c1.8-0.5,3.3-1.9,3.8-3.8l1.1-4.2c0.5-2,3.3-2,3.9,0l1.1,4.2c0.5,1.8,1.9,3.3,3.8,3.8l4.2,1.1 c2,0.5,2,3.3,0,3.9l-4.2,1.1c-1.8,0.5-3.3,1.9-3.8,3.8l-1.1,4.2c-0.5,2-3.3,2-3.9,0l-1.1-4.2c-0.5-1.8-1.9-3.3-3.8-3.8l-4.2-1.1 c-2-0.5-2-3.3,0-3.9L14.7,35.6z" class="st32"/><path d="M74.2,142c1.2-0.3,2.1-1.2,2.4-2.4l0.7-2.7c0.3-1.3,2.1-1.3,2.5,0l0.7,2.7c0.3,1.2,1.2,2.1,2.4,2.4l2.7,0.7 c1.3,0.3,1.3,2.1,0,2.5l-2.7,0.7c-1.2,0.3-2.1,1.2-2.4,2.4l-0.7,2.7c-0.3,1.3-2.1,1.3-2.5,0l-0.7-2.7c-0.3-1.2-1.2-2.1-2.4-2.4 l-2.7-0.7c-1.3-0.3-1.3-2.1,0-2.5L74.2,142z" class="st32"/><g><path d="M-16.1,82.2l81.8-20.5c2.3-0.6,4.6,0.8,5.1,3.1l13.9,55.5c0.6,2.3-0.8,4.6-3.1,5.1l-81.8,20.5 c-2.3,0.6-4.6-0.8-5.1-3.1l-13.9-55.5C-19.8,85-18.4,82.7-16.1,82.2z" class="st33"/><path d="M-17.4,77l81.8-20.5c2.3-0.6,4.6,0.8,5.1,3.1l13.9,55.5c0.6,2.3-0.8,4.6-3.1,5.1l-81.8,20.5 c-2.3,0.6-4.6-0.8-5.1-3.1l-13.9-55.5C-21,79.9-19.7,77.6-17.4,77z" class="st0"/><path d="M80.4,120.3L32.2,91.8c-1.8-1-4-0.4-5.1,1.3l-28.9,47.7L80.4,120.3z" class="st34"/><path d="M64.5,56.6L-17.4,77c-1.1,0.3-2,1-2.6,1.9l50.4,25.9c1.9,0.8,4.2,0.3,5.4-1.4l31.9-46.3 C66.7,56.5,65.6,56.3,64.5,56.6z" class="st0"/><path d="M67.7,57.1l-31.8,46.4c-1.3,1.7-3.5,2.3-5.4,1.4L-19.9,79c-0.6,0.9-0.8,2-0.5,3l51.9,28.8 c2.1,0.9,4.5,0.3,5.9-1.5l32.3-49.6C69.3,58.6,68.7,57.7,67.7,57.1z" class="st33"/></g></g></g></g></svg>